# xmcd CD database file
#
# Track frame offsets:
#	150
#	26523
#	61507
#
# Disc length: 1186 seconds
#
# Revision: 0
# Processed by: cddbd v1.5.1PL2 Copyright (c) Steve Scherf et al.
# Submitted via: CDex 1.51
#
DISCID=1704a003
DTITLE=Northern Heightz - Saturday Love Affair
DYEAR=2005
DGENRE=Trance
TTITLE0=Saturday Love Affair - Original Mix
TTITLE1=Saturday Love Affair - Friday Night Posse Remix
TTITLE2=Fly To You - Club Mix
EXTD=YEAR: 2005
EXTT0=
EXTT1=
EXTT2=
PLAYORDER=
